<svg width="50" height="50" viewBox="0 0 50 50" fill="none" xmlns="http://www.w3.org/2000/svg">
<path d="M25 7.8125C22.928 7.8125 20.9408 8.6356 19.4757 10.1007C18.0106 11.5659 17.1875 13.553 17.1875 15.625C17.1875 17.697 18.0106 19.6841 19.4757 21.1493C20.9408 22.6144 22.928 23.4375 25 23.4375C27.072 23.4375 29.0591 22.6144 30.5242 21.1493C31.9894 19.6841 32.8125 17.697 32.8125 15.625C32.8125 13.553 31.9894 11.5659 30.5242 10.1007C29.0591 8.6356 27.072 7.8125 25 7.8125ZM16.6666 27.6042C14.5946 27.6042 12.6075 28.4273 11.1424 29.8924C9.67723 31.3575 8.85413 33.3447 8.85413 35.4167V37.8917C8.85413 39.4625 9.99163 40.8 11.5416 41.0521C20.4541 42.5083 29.5458 42.5083 38.4583 41.0521C39.2085 40.9299 39.8907 40.545 40.3831 39.966C40.8754 39.387 41.1458 38.6517 41.1458 37.8917V35.4167C41.1458 33.3447 40.3227 31.3575 38.8576 29.8924C37.3924 28.4273 35.4053 27.6042 33.3333 27.6042H32.625C32.2395 27.6042 31.8562 27.6667 31.4916 27.7833L29.6875 28.3729C26.6415 29.3672 23.3584 29.3672 20.3125 28.3729L18.5083 27.7833C18.143 27.6645 17.7612 27.604 17.377 27.6042H16.6666Z" fill="#3F7AFC"/>
</svg>
