<svg width="25" height="25" viewBox="0 0 25 25" fill="none" xmlns="http://www.w3.org/2000/svg">
<path d="M21.9876 10.6873H21.2058V10.6471H12.4705V14.5294H17.9558C17.1556 16.7894 15.0052 18.4118 12.4705 18.4118C9.25449 18.4118 6.647 15.8043 6.647 12.5882C6.647 9.37219 9.25449 6.76471 12.4705 6.76471C13.955 6.76471 15.3056 7.32474 16.334 8.23952L19.0793 5.49421C17.3458 3.87866 15.0271 2.88235 12.4705 2.88235C7.11046 2.88235 2.76465 7.22816 2.76465 12.5882C2.76465 17.9483 7.11046 22.2941 12.4705 22.2941C17.8306 22.2941 22.1764 17.9483 22.1764 12.5882C22.1764 11.9375 22.1094 11.3022 21.9876 10.6873Z" fill="#FFC107"/>
<path d="M3.88379 8.07063L7.07266 10.4093C7.93551 8.273 10.0252 6.76471 12.4706 6.76471C13.9551 6.76471 15.3057 7.32474 16.334 8.23952L19.0793 5.49421C17.3458 3.87866 15.0271 2.88235 12.4706 2.88235C8.74255 2.88235 5.50952 4.98708 3.88379 8.07063Z" fill="#FF3D00"/>
<path d="M12.4705 22.2941C14.9775 22.2941 17.2555 21.3347 18.9778 19.7745L15.9738 17.2325C14.9666 17.9985 13.7359 18.4128 12.4705 18.4118C9.946 18.4118 7.80245 16.8021 6.99492 14.5556L3.82983 16.9942C5.43616 20.1375 8.69831 22.2941 12.4705 22.2941Z" fill="#4CAF50"/>
<path d="M21.9877 10.6873H21.2059V10.6471H12.4706V14.5294H17.9559C17.5731 15.605 16.8835 16.5449 15.9725 17.233L15.9739 17.232L18.9779 19.774C18.7653 19.9671 22.1765 17.4412 22.1765 12.5882C22.1765 11.9375 22.1095 11.3022 21.9877 10.6873Z" fill="#1976D2"/>
</svg>
