<svg width="49" height="49" viewBox="0 0 49 49" fill="none" xmlns="http://www.w3.org/2000/svg">
<path d="M16.625 8.75C15.5908 8.75 14.5668 8.95369 13.6114 9.34945C12.6559 9.7452 11.7878 10.3253 11.0565 11.0565C10.3253 11.7878 9.7452 12.6559 9.34945 13.6114C8.95369 14.5668 8.75 15.5908 8.75 16.625C8.75 17.6592 8.95369 18.6832 9.34945 19.6386C9.7452 20.5941 10.3253 21.4622 11.0565 22.1935C11.7878 22.9247 12.6559 23.5048 13.6114 23.9006C14.5668 24.2963 15.5908 24.5 16.625 24.5C18.7136 24.5 20.7166 23.6703 22.1935 22.1935C23.6703 20.7166 24.5 18.7136 24.5 16.625C24.5 14.5364 23.6703 12.5334 22.1935 11.0565C20.7166 9.57968 18.7136 8.75 16.625 8.75ZM11.375 16.625C11.375 15.9356 11.5108 15.2529 11.7746 14.6159C12.0385 13.979 12.4252 13.4002 12.9127 12.9127C13.4002 12.4252 13.979 12.0385 14.6159 11.7746C15.2529 11.5108 15.9356 11.375 16.625 11.375C17.3144 11.375 17.9971 11.5108 18.6341 11.7746C19.271 12.0385 19.8498 12.4252 20.3373 12.9127C20.8248 13.4002 21.2115 13.979 21.4754 14.6159C21.7392 15.2529 21.875 15.9356 21.875 16.625C21.875 18.0174 21.3219 19.3527 20.3373 20.3373C19.3527 21.3219 18.0174 21.875 16.625 21.875C15.2326 21.875 13.8973 21.3219 12.9127 20.3373C11.9281 19.3527 11.375 18.0174 11.375 16.625ZM35 12.25C33.3755 12.25 31.8176 12.8953 30.669 14.044C29.5203 15.1926 28.875 16.7505 28.875 18.375C28.875 19.9995 29.5203 21.5574 30.669 22.706C31.8176 23.8547 33.3755 24.5 35 24.5C36.6245 24.5 38.1824 23.8547 39.331 22.706C40.4797 21.5574 41.125 19.9995 41.125 18.375C41.125 16.7505 40.4797 15.1926 39.331 14.044C38.1824 12.8953 36.6245 12.25 35 12.25ZM31.5 18.375C31.5 17.4467 31.8687 16.5565 32.5251 15.9001C33.1815 15.2437 34.0717 14.875 35 14.875C35.9283 14.875 36.8185 15.2437 37.4749 15.9001C38.1312 16.5565 38.5 17.4467 38.5 18.375C38.5 19.3033 38.1312 20.1935 37.4749 20.8499C36.8185 21.5063 35.9283 21.875 35 21.875C34.0717 21.875 33.1815 21.5063 32.5251 20.8499C31.8687 20.1935 31.5 19.3033 31.5 18.375ZM3.5 31.9375C3.5 30.8932 3.91484 29.8917 4.65327 29.1533C5.39169 28.4148 6.39321 28 7.4375 28H25.8125C26.8568 28 27.8583 28.4148 28.5967 29.1533C29.3352 29.8917 29.75 30.8932 29.75 31.9375V32.8668C29.7478 33.0084 29.7378 33.1497 29.7202 33.2903C29.6808 33.6513 29.6165 34.0091 29.5277 34.3612C29.2384 35.5104 28.7226 36.5903 28.0105 37.5375C26.236 39.9053 22.8515 42 16.625 42C10.3985 42 7.014 39.9053 5.2395 37.5375C4.52805 36.5901 4.01282 35.5103 3.724 34.3612C3.60974 33.9038 3.53653 33.437 3.50525 32.9665C3.50307 32.9333 3.50132 32.9 3.5 32.8668V31.9375ZM6.125 32.8038V32.8353L6.14075 33.0103C6.15825 33.1748 6.19325 33.4215 6.27025 33.7243C6.47428 34.5337 6.83715 35.2945 7.33775 35.9625C8.51725 37.5322 11.039 39.375 16.625 39.375C22.211 39.375 24.7327 37.5322 25.9105 35.9625C26.523 35.147 26.8275 34.3315 26.978 33.7243C27.0515 33.4326 27.1001 33.1352 27.1232 32.8353L27.125 32.8038V31.9375C27.125 31.5894 26.9867 31.2556 26.7406 31.0094C26.4944 30.7633 26.1606 30.625 25.8125 30.625H7.4375C7.0894 30.625 6.75556 30.7633 6.50942 31.0094C6.26328 31.2556 6.125 31.5894 6.125 31.9375V32.8038ZM29.925 37.835C31.2778 38.2498 32.9472 38.5 34.9965 38.5C39.844 38.5 42.553 37.107 44.0247 35.427C44.6132 34.7622 45.0493 33.9768 45.3022 33.1258C45.4022 32.7821 45.4661 32.4291 45.493 32.0723L45.4965 31.99V31.9375C45.4965 30.8932 45.0817 29.8917 44.3432 29.1533C43.6048 28.4148 42.6033 28 41.559 28H29.9145C30.604 28.7192 31.108 29.6205 31.346 30.625H41.5608C41.9058 30.625 42.237 30.7608 42.4827 31.0032C42.7283 31.2456 42.8686 31.5749 42.8733 31.92C42.8577 32.0788 42.8273 32.2359 42.7822 32.389C42.6359 32.8738 42.385 33.3206 42.0472 33.698C41.223 34.643 39.34 35.875 34.9965 35.875C33.3497 35.875 32.0565 35.6982 31.0397 35.4253C30.77 36.2718 30.3955 37.0813 29.925 37.835Z" fill="#D29E00"/>
</svg>
