<svg width="20" height="25" viewBox="0 0 20 25" fill="none" xmlns="http://www.w3.org/2000/svg">
<path d="M15.0443 0.952819C14.9948 0.897496 13.2113 0.974657 11.6594 2.6591C10.1074 4.3421 10.3462 6.27259 10.3811 6.32209C10.4161 6.37159 12.594 6.44875 13.9844 4.49059C15.3748 2.53244 15.0938 1.0096 15.0443 0.952819ZM19.869 18.0346C19.7992 17.8948 16.4841 16.238 16.7928 13.0526C17.1014 9.86568 19.2314 8.99216 19.2649 8.89753C19.2983 8.8029 18.3957 7.74739 17.4392 7.21308C16.7369 6.83638 15.9596 6.62055 15.1637 6.58123C15.0064 6.57686 14.4605 6.44292 13.338 6.75011C12.5984 6.95248 10.9314 7.60762 10.4728 7.63383C10.0128 7.66004 8.64425 6.87386 7.17237 6.66567C6.23041 6.48369 5.23168 6.85639 4.51685 7.1432C3.80347 7.42855 2.4466 8.24093 1.49737 10.4C0.548135 12.5576 1.04459 15.976 1.39982 17.0388C1.75506 18.1001 2.30974 19.8399 3.25315 21.1094C4.09173 22.542 5.20402 23.5363 5.66845 23.8741C6.13287 24.2119 7.44316 24.4361 8.35162 23.9717C9.08247 23.5232 10.4015 23.2656 10.9227 23.2845C11.4424 23.3034 12.4674 23.5087 13.5171 24.0692C14.3484 24.356 15.1345 24.2366 15.9222 23.9163C16.7098 23.5946 17.8498 22.3746 19.1804 19.901C19.6856 18.7509 19.9156 18.1292 19.869 18.0346Z" fill="black"/>
<path d="M15.0443 0.952819C14.9948 0.897496 13.2113 0.974657 11.6594 2.6591C10.1074 4.3421 10.3462 6.27259 10.3811 6.32209C10.4161 6.37159 12.594 6.44875 13.9844 4.49059C15.3748 2.53244 15.0938 1.0096 15.0443 0.952819ZM19.869 18.0346C19.7992 17.8948 16.4841 16.238 16.7928 13.0526C17.1014 9.86568 19.2314 8.99216 19.2649 8.89753C19.2983 8.8029 18.3957 7.74739 17.4392 7.21308C16.7369 6.83638 15.9596 6.62055 15.1637 6.58123C15.0064 6.57686 14.4605 6.44292 13.338 6.75011C12.5984 6.95248 10.9314 7.60762 10.4728 7.63383C10.0128 7.66004 8.64425 6.87386 7.17237 6.66567C6.23041 6.48369 5.23168 6.85639 4.51685 7.1432C3.80347 7.42855 2.4466 8.24093 1.49737 10.4C0.548135 12.5576 1.04459 15.976 1.39982 17.0388C1.75506 18.1001 2.30974 19.8399 3.25315 21.1094C4.09173 22.542 5.20402 23.5363 5.66845 23.8741C6.13287 24.2119 7.44316 24.4361 8.35162 23.9717C9.08247 23.5232 10.4015 23.2656 10.9227 23.2845C11.4424 23.3034 12.4674 23.5087 13.5171 24.0692C14.3484 24.356 15.1345 24.2366 15.9222 23.9163C16.7098 23.5946 17.8498 22.3746 19.1804 19.901C19.6856 18.7509 19.9156 18.1292 19.869 18.0346Z" fill="black"/>
</svg>
