<svg width="40" height="40" viewBox="0 0 40 40" fill="none" xmlns="http://www.w3.org/2000/svg">
<g clip-path="url(#clip0_13_322)">
<path d="M25.0419 12.8581C25.0419 15.7062 22.73 18.0144 19.8794 18.0144C17.0319 18.0144 14.7238 15.7056 14.7238 12.8581C14.7238 10.0106 17.0319 7.70187 19.8794 7.70187C22.73 7.70187 25.0419 10.0106 25.0419 12.8581Z" fill="#0B8D7E"/>
<path d="M19.8875 0.327499C17.5013 0.327499 14.1681 1.27875 11.7538 3.69312L14.6213 8.9175C15.2479 8.12009 16.0476 7.47559 16.9599 7.03274C17.8723 6.58988 18.8734 6.36027 19.8875 6.36125C22.0494 6.36125 23.9731 7.3825 25.1988 8.97062L28.0113 3.57312C25.9219 1.29 22.175 0.327499 19.8875 0.327499ZM22.0125 4.16375H20.6775V5.4975H19.0738V4.16375H17.7388V2.56062H19.0738V1.22125H20.6775V2.56062H22.0125V4.16375ZM13.1038 27.2819H14.4244L12.5381 33.7469H27.2763L25.3988 27.2819H26.7206L28.61 33.7469H32.9469L29.9869 23.9519C29.5244 22.335 27.4969 19.4881 23.9981 19.4019L15.9544 19.395C12.3763 19.4125 10.3063 22.315 9.83814 23.9513L6.82064 33.7463H11.2188L13.1038 27.2819ZM0.591888 35.8081H39.1731V39.4788H0.591888V35.8081Z" fill="#0B8D7E"/>
</g>
<defs>
<clipPath id="clip0_13_322">
<rect width="40" height="40" fill="white"/>
</clipPath>
</defs>
</svg>
