<svg width="42" height="42" viewBox="0 0 42 42" fill="none" xmlns="http://www.w3.org/2000/svg">
<path d="M37.3718 8.63297L21.6218 3.38297C21.2184 3.24681 20.7816 3.24681 20.3782 3.38297L4.62821 8.63297C4.2524 8.75744 3.92284 8.99231 3.68255 9.30694C3.44227 9.62156 3.30242 10.0013 3.28125 10.3966C3.27946 10.4311 3.27946 10.4656 3.28125 10.5V23.625C3.28125 24.1471 3.48867 24.6479 3.85789 25.0171C4.2271 25.3863 4.72786 25.5938 5.25 25.5938C5.77215 25.5938 6.27291 25.3863 6.64212 25.0171C7.01133 24.6479 7.21875 24.1471 7.21875 23.625V13.2316L11.1087 14.5277C9.90143 16.8386 9.54268 19.4995 10.0949 22.0475C10.647 24.5956 12.0752 26.8693 14.1307 28.473C11.4408 29.7995 9.16425 31.8355 7.54688 34.3613C7.40123 34.5777 7.30006 34.821 7.24926 35.0769C7.19845 35.3328 7.19902 35.5963 7.25093 35.852C7.30284 36.1077 7.40506 36.3505 7.55164 36.5663C7.69822 36.7822 7.88624 36.9667 8.10478 37.1093C8.32331 37.2518 8.568 37.3495 8.82462 37.3966C9.08123 37.4438 9.34466 37.4394 9.59959 37.3839C9.85451 37.3283 10.0958 37.2226 10.3096 37.073C10.5233 36.9233 10.7051 36.7327 10.8445 36.5121C13.1857 32.9093 16.8984 30.8438 21 30.8438C25.1016 30.8438 28.8143 32.9093 31.1637 36.5121C31.3031 36.7327 31.4849 36.9233 31.6986 37.073C31.9124 37.2226 32.1537 37.3283 32.4086 37.3839C32.6635 37.4394 32.927 37.4438 33.1836 37.3966C33.4402 37.3495 33.6849 37.2518 33.9034 37.1093C34.122 36.9667 34.31 36.7822 34.4566 36.5663C34.6032 36.3505 34.7054 36.1077 34.7573 35.852C34.8092 35.5963 34.8098 35.3328 34.759 35.0769C34.7081 34.821 34.607 34.5777 34.4613 34.3613C32.8424 31.8326 30.5629 29.7947 27.8693 28.4681C29.9249 26.8644 31.353 24.5906 31.9052 22.0426C32.4573 19.4946 32.0986 16.8336 30.8913 14.5228L37.3718 12.3621C37.7633 12.2311 38.1037 11.9804 38.3449 11.6453C38.5861 11.3103 38.7159 10.9079 38.7159 10.4951C38.7159 10.0822 38.5861 9.67986 38.3449 9.34481C38.1037 9.00977 37.7633 8.75903 37.3718 8.62805V8.63297ZM21 7.32047L30.5238 10.5L21 13.6746L11.4844 10.5L21 7.32047ZM28.2188 19.6875C28.219 20.8088 27.958 21.9147 27.4565 22.9175C26.955 23.9204 26.2268 24.7926 25.3296 25.4651C24.4324 26.1376 23.3909 26.5919 22.2876 26.7919C21.1843 26.9918 20.0496 26.9321 18.9734 26.6173C17.8973 26.3025 16.9092 25.7414 16.0876 24.9784C15.266 24.2154 14.6335 23.2714 14.2401 22.2214C13.8467 21.1715 13.7033 20.0443 13.8213 18.9292C13.9393 17.8142 14.3154 16.742 14.9198 15.7976L20.3782 17.617C20.7816 17.7527 21.2184 17.7527 21.6218 17.617L27.0802 15.7976C27.8247 16.9583 28.2199 18.3085 28.2188 19.6875Z" fill="#FF39CA"/>
</svg>
