<svg width="49" height="49" viewBox="0 0 49 49" fill="none" xmlns="http://www.w3.org/2000/svg">
<path d="M20.4167 40.3188V33.4833C20.4167 30.8639 22.4482 28.8038 25.4535 27.6278C23.5154 26.9069 21.4637 26.5391 19.3959 26.5417C15.5371 26.5417 11.9724 27.8014 9.09158 29.9308C9.98483 32.457 11.4846 34.7253 13.4592 36.5366C15.4338 38.3478 17.8229 39.6466 20.4167 40.3188ZM38.5467 32.8422C37.7402 31.754 35.0555 30.625 31.6459 30.625C27.5503 30.625 24.5 32.2522 24.5 33.4833V40.8333C27.3336 40.8349 30.1187 40.0989 32.5815 38.6978C35.0444 37.2967 37.1002 35.2787 38.5467 32.8422ZM19.498 23.4792C20.7163 23.4792 21.8847 22.9952 22.7462 22.1337C23.6077 21.2722 24.0917 20.1038 24.0917 18.8854C24.0917 17.6671 23.6077 16.4986 22.7462 15.6371C21.8847 14.7756 20.7163 14.2917 19.498 14.2917C18.2796 14.2917 17.1112 14.7756 16.2497 15.6371C15.3882 16.4986 14.9042 17.6671 14.9042 18.8854C14.9042 20.1038 15.3882 21.2722 16.2497 22.1337C17.1112 22.9952 18.2796 23.4792 19.498 23.4792ZM31.6459 25.5208C32.7288 25.5208 33.7675 25.0906 34.5332 24.3248C35.299 23.5591 35.7292 22.5205 35.7292 21.4375C35.7292 20.3545 35.299 19.3159 34.5332 18.5501C33.7675 17.7844 32.7288 17.3542 31.6459 17.3542C30.5629 17.3542 29.5243 17.7844 28.7585 18.5501C27.9928 19.3159 27.5625 20.3545 27.5625 21.4375C27.5625 22.5205 27.9928 23.5591 28.7585 24.3248C29.5243 25.0906 30.5629 25.5208 31.6459 25.5208ZM24.5 44.9167C13.2239 44.9167 4.08337 35.7761 4.08337 24.5C4.08337 13.2239 13.2239 4.08333 24.5 4.08333C35.7762 4.08333 44.9167 13.2239 44.9167 24.5C44.9167 35.7761 35.7762 44.9167 24.5 44.9167Z" fill="#FE9E2D"/>
</svg>
