<svg width="44" height="44" viewBox="0 0 44 44" fill="none" xmlns="http://www.w3.org/2000/svg">
<path d="M22 25.6667C27.0674 25.6667 31.1667 21.5637 31.1667 16.5C31.1667 11.4363 27.0674 7.33333 22 7.33333C16.9327 7.33333 12.8334 11.4363 12.8334 16.5C12.8334 21.5637 16.9327 25.6667 22 25.6667ZM22 11C25.0324 11 27.5 13.4677 27.5 16.5C27.5 19.5323 25.0324 22 22 22C18.9677 22 16.5 19.5323 16.5 16.5C16.5 13.4677 18.9677 11 22 11ZM36.6667 27.5C37.8823 27.5 39.0481 27.0171 39.9076 26.1576C40.7671 25.298 41.25 24.1322 41.25 22.9167C41.25 21.7011 40.7671 20.5353 39.9076 19.6758C39.0481 18.8162 37.8823 18.3333 36.6667 18.3333C35.4511 18.3333 34.2853 18.8162 33.4258 19.6758C32.5662 20.5353 32.0834 21.7011 32.0834 22.9167C32.0834 24.1322 32.5662 25.298 33.4258 26.1576C34.2853 27.0171 35.4511 27.5 36.6667 27.5ZM36.6667 20.1667C38.1829 20.1667 39.4167 21.4005 39.4167 22.9167C39.4167 24.4328 38.1829 25.6667 36.6667 25.6667C35.1505 25.6667 33.9167 24.4328 33.9167 22.9167C33.9167 21.4005 35.1505 20.1667 36.6667 20.1667ZM36.6667 28.5817C34.2265 28.5817 32.3914 29.326 31.3189 30.3582C29.2747 28.6752 26.0425 27.5 22 27.5C17.8457 27.5 14.6759 28.688 12.6647 30.3673C11.572 29.3315 9.71669 28.5798 7.33335 28.5798C3.32202 28.5798 0.916687 30.58 0.916687 32.582C0.916687 33.5812 3.32202 34.584 7.33335 34.584C8.44069 34.584 9.43435 34.4905 10.3089 34.3402L10.2355 34.8352C10.2355 36.6685 14.6447 38.5018 22 38.5018C28.897 38.5018 33.7645 36.6685 33.7645 34.8352L33.726 34.3677C34.5749 34.5015 35.552 34.584 36.6667 34.584C40.4269 34.584 43.0834 33.5812 43.0834 32.582C43.0834 30.58 40.5662 28.5817 36.6667 28.5817ZM7.33335 32.7488C4.93352 32.7488 3.54202 32.3693 2.90219 32.0998C3.34035 31.3573 4.74102 30.4132 7.33335 30.4132C9.36285 30.4132 10.7012 31.0567 11.3814 31.7075L10.9505 32.3382C10.1219 32.5563 8.91919 32.7488 7.33335 32.7488ZM22 34.8333C18.0345 34.8333 15.5815 34.2613 14.3294 33.8048C15.2845 32.5618 17.8457 31.1667 22 31.1667C25.9765 31.1667 28.5817 32.5618 29.6047 33.7792C28.2205 34.2742 25.641 34.8333 22 34.8333ZM36.6667 32.7488C34.991 32.7488 33.8324 32.56 33.0495 32.3583C32.9132 32.1194 32.7613 31.8898 32.5949 31.6708C33.2475 31.0383 34.5584 30.415 36.6667 30.415C39.094 30.415 40.5919 31.3335 41.074 32.0852C40.359 32.384 38.8649 32.7488 36.6667 32.7488ZM7.33335 27.5C8.54893 27.5 9.71472 27.0171 10.5743 26.1576C11.4338 25.298 11.9167 24.1322 11.9167 22.9167C11.9167 21.7011 11.4338 20.5353 10.5743 19.6758C9.71472 18.8162 8.54893 18.3333 7.33335 18.3333C6.11778 18.3333 4.95199 18.8162 4.09245 19.6758C3.23291 20.5353 2.75002 21.7011 2.75002 22.9167C2.75002 24.1322 3.23291 25.298 4.09245 26.1576C4.95199 27.0171 6.11778 27.5 7.33335 27.5ZM7.33335 20.1667C8.84952 20.1667 10.0834 21.4005 10.0834 22.9167C10.0834 24.4328 8.84952 25.6667 7.33335 25.6667C5.81719 25.6667 4.58335 24.4328 4.58335 22.9167C4.58335 21.4005 5.81719 20.1667 7.33335 20.1667Z" fill="#8B1ECD"/>
</svg>
